<svg width="102" height="101" viewBox="0 0 102 101" fill="none" xmlns="http://www.w3.org/2000/svg">
<path d="M29.4769 18.5175C46.5166 9.68319 54.1153 20.6641 69.3129 37.0116C84.5105 53.3592 92.3396 54.5151 82.8986 74.3302C73.4577 94.1454 22.5688 88.3659 17.8867 71.9359C13.2047 55.5058 12.4371 27.3517 29.4769 18.5175Z" fill="#A0E4F1"/>
<path d="M63.3782 13.3264C80.8468 21.2793 76.898 34.0358 73.4176 56.0833C69.9372 78.1309 73.8605 85.0039 52.4433 89.8076C31.0261 94.6113 4.16083 51.007 14.1971 37.1816C24.2333 23.3562 45.9097 5.37351 63.3782 13.3264Z" fill="#4A4DE7"/>
<path d="M35.3252 18.7386C51.5 11 75.9863 26.9523 72.5059 48.9999C69.0255 71.0474 69.453 82.7386 53.0465 80.9494C36.6401 79.1601 28.8216 61.7309 17.1608 43.7386C5.49996 25.7464 19.1504 26.4771 35.3252 18.7386Z" fill="#56DFF1" fill-opacity="0.63"/>
</svg>
