<svg width="200" height="125" viewBox="0 0 200 125" fill="none" xmlns="http://www.w3.org/2000/svg">
<path d="M34.9 100V43.4L44 43.6L18.7 74.6L16.3 71.6H62.7V85.6H8.7L1.9 72.5L37.6 29.4H51.3V100H34.9ZM99.9109 101C93.6443 101 88.2776 99.5667 83.8109 96.7C79.4109 93.8333 76.0443 89.7333 73.7109 84.4C71.3776 79 70.2109 72.5333 70.2109 65C70.2109 57.4667 71.3776 51.0333 73.7109 45.7C76.0443 40.3 79.4109 36.1667 83.8109 33.3C88.2776 30.4333 93.6443 29 99.9109 29C106.178 29 111.544 30.4333 116.011 33.3C120.478 36.1667 123.878 40.3 126.211 45.7C128.544 51.0333 129.711 57.4667 129.711 65C129.711 72.5333 128.544 79 126.211 84.4C123.878 89.7333 120.478 93.8333 116.011 96.7C111.544 99.5667 106.178 101 99.9109 101ZM99.9109 86.6C104.244 86.6 107.578 84.7333 109.911 81C112.311 77.2667 113.511 71.9333 113.511 65C113.511 57.8667 112.311 52.4 109.911 48.6C107.578 44.7333 104.244 42.8 99.9109 42.8C95.5776 42.8 92.2109 44.7333 89.8109 48.6C87.4776 52.4 86.3109 57.8667 86.3109 65C86.3109 71.9333 87.4776 77.2667 89.8109 81C92.2109 84.7333 95.5776 86.6 99.9109 86.6ZM168.591 100V43.4L177.691 43.6L152.391 74.6L149.991 71.6H196.391V85.6H142.391L135.591 72.5L171.291 29.4H184.991V100H168.591Z" fill="#464F72"/>
</svg>
