<svg width="61" height="139" viewBox="0 0 61 139" fill="none" xmlns="http://www.w3.org/2000/svg">
<path d="M41.3022 26.1898L40.981 27.7932L43.1575 28.2252C44.2523 28.4346 45.3734 28.5262 45.3734 28.5262L45.5766 26.9031C44.8575 26.8408 44.1421 26.7425 43.4329 26.6086L41.3022 26.1898Z" fill="#FBE366"/>
<path d="M49.2217 16.4251C49.2217 16.4251 51.7064 13.5389 54.8925 13.6371C57.7443 13.7156 54.9318 16.3531 51.0901 18.7747L49.2217 16.4251Z" fill="#F7B2A0"/>
<path d="M13.938 24.1937C11.4467 24.6453 10.6076 26.7068 11.8204 29.9268C13.6692 34.868 23.7324 37.7019 32.4911 36.9165C42.4429 36.0199 51.6867 18.5915 51.6867 18.5915C51.6867 18.5915 52.0014 16.2746 49.7199 15.882C49.7199 15.882 39.8402 26.3534 29.9802 27.3548C25.1551 27.8718 19.1958 23.2447 13.938 24.1937Z" fill="#EDA503"/>
<path d="M24.9125 25.2932C29.0427 28.4411 32.5567 36.118 34.2088 61.2234C34.5628 66.7405 2.49142 68.0756 2.37342 62.5323C2.08496 47.8003 4.60897 41.7465 8.8244 28.4673C10.0045 24.8678 16.7636 19.0103 24.9125 25.2932Z" fill="#FFB502"/>
<path d="M56.125 39.05C56.125 39.05 61.1993 32.7017 60.9108 35.5421C60.6223 38.3825 61.7499 40.0448 57.5148 41.7072L56.125 39.05Z" fill="#F7B2A0"/>
<path d="M24.8732 26.7133C19.3008 27.5052 18.0027 30.5682 18.5927 33.9583C19.4843 39.1548 22.1788 47.3814 31.3439 51.3278C40.509 55.2743 58.1312 41.6614 58.1312 41.6614C58.1312 41.6614 58.8786 39.4427 56.7283 38.6377C56.7283 38.6377 41.3744 46.6222 34.1498 41.3276C30.6621 38.7686 30.1573 25.9803 24.8732 26.7133Z" fill="#FFB502"/>
<path d="M6.1365 135.093C4.06484 133.666 4.05828 133.365 4.35985 132.671C4.63064 132.04 4.95296 131.431 5.32357 130.852L1.22614 129.582C0.86735 130.831 0.647493 132.115 0.570557 133.411C0.918018 133.686 3.69771 135.905 6.1365 135.093Z" fill="#FBC6B4"/>
<path d="M0.5573 133.411C0.546557 133.388 0.530883 133.368 0.511408 133.352C-0.753876 136.86 4.30726 137.482 7.10662 137.194C9.90598 136.906 6.13635 135.093 6.13635 135.093C3.69757 135.905 0.917873 133.686 0.5573 133.411Z" fill="#FFB502"/>
<path d="M0.000253889 129.196C-0.0390814 131.055 4.50414 132.855 5.35641 131.664C12.6662 121.447 18.2846 101.787 20.2251 93.8354C20.3104 93.482 20.4021 93.181 20.4874 92.8472C21.5822 89.3523 22.795 89.7123 25.5485 74.1229C26.4532 69.0835 25.6862 60.8438 25.6862 60.8438L18.7697 59.8424L2.8914 57.4144C-0.891346 63.4027 0.878741 77.5261 1.19342 83.3443C1.48844 88.2594 2.35381 96.0934 2.29481 99.994C2.03258 113.607 0.183818 116.827 0.000253889 129.196Z" fill="#1C2745"/>
<path d="M27.9546 136.166C25.6272 135.145 25.5748 134.857 25.7321 134.105C25.8968 133.438 26.1026 132.783 26.3484 132.141L22.0936 131.644C21.9674 132.938 21.9871 134.242 22.1526 135.532C22.5394 135.741 25.6862 137.416 27.9546 136.166Z" fill="#FBC6B4"/>
<path d="M22.1526 135.545L22.0805 135.486C21.4839 139.183 26.5647 138.856 29.2919 138.064C32.0192 137.272 27.9808 136.166 27.9808 136.166C25.6862 137.416 22.5394 135.741 22.1526 135.545Z" fill="#FFB502"/>
<path d="M13.6037 86.1978C14.7968 90.982 17.452 95.9167 17.452 102.631C17.452 116.29 18.7631 119.314 20.7758 131.513C20.9987 132.927 24.0013 133.817 25.6206 133.476C25.8426 133.447 26.0541 133.364 26.2368 133.234C26.3718 133.176 26.4795 133.068 26.5384 132.933C31.8224 121.559 35.3757 102.173 35.8477 94.0449C36.1231 89.2346 35.9985 89.8301 35.8477 72.6766C35.8019 67.5455 33.5597 59.5872 33.5597 59.5872L12.2073 60.2417C9.55868 66.8911 12.2335 80.5432 13.6037 86.1978Z" fill="#27355C"/>
<path d="M25.6206 133.49C25.8426 133.46 26.0541 133.377 26.2369 133.247C29.4689 124.248 30.826 114.68 32.0454 106.414C33.0681 99.3984 34.2023 91.4204 34.2416 83.5865C34.2416 75.0064 32.8714 67.4473 30.1114 61.1056C30.0985 61.0754 30.0798 61.0481 30.0564 61.0252C30.0329 61.0023 30.0052 60.9843 29.9747 60.9721C29.9443 60.96 29.9117 60.9539 29.8789 60.9544C29.8461 60.9548 29.8137 60.9617 29.7836 60.9747C29.7235 61.002 29.6755 61.0504 29.6489 61.1108C29.6223 61.1712 29.6189 61.2392 29.6394 61.3019C32.3732 67.5717 33.763 75.085 33.7368 83.5865C33.7368 91.3943 32.5764 99.346 31.5537 106.362C30.3343 114.7 28.9182 124.425 25.6206 133.49Z" fill="white"/>
<path d="M27.3184 27.5118C27.3184 27.5118 21.5624 34.7698 24.5518 47.2832C24.5518 47.2832 26.7087 55.1957 33.6973 54.4824L35.0085 66.1188C35.0085 66.1188 20.8215 72.1661 1.06213 62.6305C1.06213 62.6305 -0.537505 43.952 9.36842 27.2893C9.36842 27.2893 11.4466 24.1086 13.7805 23.3625C13.7805 23.3625 2.24219 42.6104 11.0467 44.3054C19.8513 46.0005 24.9124 25.2932 24.9124 25.2932L27.3184 27.5118Z" fill="#1C2745"/>
<path d="M16.3176 18.9317C16.3176 18.9317 14.8032 25.2931 16.0554 26.7853C17.3076 28.2775 23.9224 26.7853 23.634 24.3965C23.369 22.4157 22.9459 20.4591 22.3687 18.5456L16.3176 18.9317Z" fill="#FBC6B4"/>
<path d="M12.5874 12.374C12.5874 17.9762 15.7277 22.5182 19.5956 22.5182C21.3329 22.5182 25.2009 22.996 26.4269 21.4842C27.9282 19.6255 27.9413 14.861 27.0824 11.8897C25.1157 5.05051 22.1852 2.7926 18.3107 2.7926C14.4362 2.7926 12.5874 6.76522 12.5874 12.374Z" fill="#FBC6B4"/>
<path d="M19.2219 23.1727C16.7831 23.2971 12.7119 22.4528 10.4633 17.4658C8.40471 12.8845 9.59132 5.30577 14.1936 2.97587C15.6586 2.25637 17.2642 1.86702 18.8966 1.83535C20.5291 1.80369 22.1486 2.13048 23.6406 2.79262C27.8757 4.80183 27.3315 7.37389 26.4727 7.79275C24.6895 8.66973 23.2866 7.27572 23.6406 9.71033C23.9159 11.5821 23.7717 15.7249 22.0278 15.9736C20.284 16.2223 18.7958 16.2288 19.2219 18.7485C19.5366 20.6596 21.6738 23.0418 19.2219 23.1727Z" fill="#000644"/>
<path d="M22.6835 10.993C22.6835 10.993 32.2419 5.45626 29.5016 2.72714C27.2726 0.508498 19.7202 3.4405 19.7202 3.4405L22.6835 10.993Z" fill="#EDA503"/>
<path d="M25.7713 6.03218C24.8535 11.1108 20.4873 13.8858 9.51275 16.8112C9.51275 16.8112 3.98615 6.99425 11.1124 1.75852C17.3929 -2.84892 26.3745 2.67477 25.7713 6.03218Z" fill="#FFB502"/>
</svg>
